<svg xmlns="http://www.w3.org/2000/svg" xmlns:xlink="http://www.w3.org/1999/xlink" version="1.1" x="0px" y="0px"
     viewBox="0 0 100 125" style="enable-background:new 0 0 100 100;" xml:space="preserve">
    <g>
        <g>
            <circle fill="white" cx="29.6" cy="32.5" r="7.9"/>
            <path fill="white"
                  d="M48.1,32.5L48.1,32.5c-1.3-1.3-3.5-1.3-4.9,0l-8.1,8.1c-3.1,3.1-8.1,3.1-11.2,0l-8-8c-1.3-1.3-3.5-1.4-4.8-0.1    C9.7,33.8,9.6,36,11,37.4L21.6,48v24c0,1.9,1.6,3.5,3.5,3.5c1.9,0,3.4-1.6,3.4-3.4V61.5c0-0.6,0.4-1.1,1-1.1c0.6,0,1,0.5,1,1.1V72    c0,1.9,1.6,3.5,3.5,3.5c1.9,0,3.4-1.6,3.4-3.4V48l10.6-10.6C49.4,36,49.4,33.8,48.1,32.5z"/>
        </g>
        <g>
            <circle fill="white" cx="70.5" cy="32.5" r="7.9"/>
            <path fill="white"
                  d="M89,32.5L89,32.5c-1.3-1.3-3.5-1.3-4.9,0L76,40.6c-3.1,3.1-8.1,3.1-11.2,0l-8-8c-1.3-1.3-3.5-1.4-4.8-0.1    c-1.4,1.3-1.4,3.6-0.1,4.9l10.6,10.6l-4.2,17.7h4.2V72c0,1.9,1.6,3.5,3.5,3.5c1.9,0,3.4-1.6,3.4-3.4v-6.4h2V72    c0,1.9,1.6,3.5,3.5,3.5c1.9,0,3.4-1.6,3.4-3.4v-6.4h4.2l-4.2-17.7L89,37.3C90.3,36,90.3,33.8,89,32.5z"/>
        </g>
    </g>
</svg>