<svg xmlns="http://www.w3.org/2000/svg" xmlns:xlink="http://www.w3.org/1999/xlink" version="1.1" x="0px" y="0px"
     viewBox="0 0 92.468 289.78249999999997" style="enable-background:new 0 0 92.468 231.826;" xml:space="preserve">
    <g>
        <path fill="white"
              d="M71.237,126.82v-1.381h-50v1.381v93.578c0,6.313,5.117,11.428,11.428,11.428c6.311,0,11.43-5.115,11.43-11.428v-85.85   h4.285v85.85c0,6.313,5.117,11.428,11.428,11.428s11.43-5.115,11.43-11.428V126.82z"/>
        <path fill="white"
                d="M84.015,145.918c0.137,0.008,0.271,0.012,0.408,0.012c3.959,0,7.268-3.1,7.484-7.098   c0.381-7.113,0.559-13.627,0.561-19.598c-0.043-30.236-4.416-46.684-10.256-56.51c-2.924-4.885-6.355-8.051-9.617-9.844   c-3.256-1.813-6.184-2.188-7.816-2.178c-0.154,0-0.277,0.006-0.408,0.012c-0.094-0.004-0.184-0.016-0.277-0.016h-6.215   C56.983,59.795,46.446,66.98,46.446,66.98s-10.537-7.186-11.434-16.281H28.38c-0.094,0-0.186,0.012-0.277,0.016   c-0.133-0.006-0.258-0.012-0.412-0.012c-1.633-0.01-4.563,0.367-7.816,2.178c-4.943,2.717-10.051,8.41-13.683,18.564   C2.52,81.652,0.01,96.543,0,119.234c0,5.971,0.178,12.486,0.564,19.6c0.215,3.998,3.526,7.096,7.483,7.096   c0.137,0,0.274-0.004,0.413-0.012c4.134-0.225,7.304-3.76,7.081-7.896c-0.373-6.869-0.545-13.113-0.543-18.787   C14.964,95.26,18.085,81.5,21.237,74.143v38.162v8.854h50v-8.854V74.193c0.045,0.102,0.088,0.191,0.133,0.297   c3.129,7.418,6.113,21.154,6.096,44.744c0.002,5.676-0.168,11.922-0.537,18.791C76.704,142.162,79.878,145.693,84.015,145.918z"/>
        <path fill="white"
                d="M35.907,42.486C39.001,44.09,42.511,45,46.235,45c3.871,0,7.512-0.979,10.691-2.697   C63.96,38.498,68.735,31.059,68.735,22.5c0-12.426-10.072-22.5-22.5-22.5c-12.426,0-22.5,10.074-22.5,22.5   C23.735,31.203,28.679,38.744,35.907,42.486z"/></g>
</svg>