<svg xmlns="http://www.w3.org/2000/svg" xmlns:xlink="http://www.w3.org/1999/xlink" version="1.1" x="0px" y="0px"
     viewBox="0 0 100 125" enable-background="new 0 0 100 100" xml:space="preserve"><g><path d="M65.072,41.853c0-2.796-2.138-5.017-5.017-5.017c-2.878,0-5.016,2.221-5.016,5.017c0,2.796,2.138,5.099,5.016,5.099   C62.935,46.951,65.072,44.648,65.072,41.853z"/><path
        d="M59.955,49.824c-6.916,0-7.686,2.988-7.686,6.485v6.387c0,1.941,0.972,4.83,3.255,4.83h0.037l0.832,18.786h7.234   l1.052-18.786c2.279-0.006,3.026-2.892,3.026-4.83V56.09C67.705,52.774,67.185,49.824,59.955,49.824z"/><path
        d="M41.681,20.087c0-3.107-2.376-5.574-5.574-5.574c-3.198,0-5.574,2.467-5.574,5.574c0,3.106,2.376,5.665,5.574,5.665   C39.305,25.752,41.681,23.193,41.681,20.087z"/><path
        d="M36.005,28.976c-6.915,0-10.758,2.988-10.758,6.484v16.921c0,1.941,2.289,4.832,4.571,4.832h0.038l2.368,29.1h7.673   l2.369-29.1c2.279-0.008,4.562-2.893,4.562-4.832V35.242C46.828,31.928,43.235,28.976,36.005,28.976z"/></g>
</svg>