<svg xmlns="http://www.w3.org/2000/svg" xmlns:xlink="http://www.w3.org/1999/xlink" version="1.1" x="0px" y="0px"
     viewBox="0 0 100 125" style="enable-background:new 0 0 100 100;" xml:space="preserve">
    <g>
        <g>
            <g>
                <path fill="white" d="M35.3,62.7L48,72.6l3.4,3.4c0.8,0.8,0.8,2,0,2.8c-0.4,0.4-0.9,0.6-1.4,0.6c-0.5,0-1-0.2-1.4-0.6l-3.4-3.4L35.3,62.7      M18.2,45.6l24.7,31.8l3.5,3.5c1,1,2.3,1.5,3.5,1.5s2.6-0.5,3.5-1.5c2-2,2-5.1,0-7.1L50,70.3L18.2,45.6L18.2,45.6z"/>
            </g>
        </g>
        <g>
            <path fill="white" d="M50,17.6c-24.9,0-45,20.1-45,45h8.5c0.8,0,1.5-0.7,1.5-1.5s-0.7-1.5-1.5-1.5h-3.4c1.5-20.2,18-36.2,38.4-37v3.5    c0,0.8,0.7,1.5,1.5,1.5s1.5-0.7,1.5-1.5v-3.5c20.4,0.8,36.9,16.8,38.4,37h-3.4c-0.8,0-1.5,0.7-1.5,1.5s0.7,1.5,1.5,1.5H95    C95,37.7,74.9,17.6,50,17.6L50,17.6z"/>
        </g>
    </g>
</svg>