<svg xmlns="http://www.w3.org/2000/svg" xmlns:xlink="http://www.w3.org/1999/xlink" xml:space="preserve" version="1.1"
     style="shape-rendering:geometricPrecision;text-rendering:geometricPrecision;image-rendering:optimizeQuality;"
     viewBox="0 0 60000 75000" x="0px" y="0px" fill-rule="evenodd" clip-rule="evenodd">
    <defs>
        <style type="text/css">
            .fil0 {fill:white;fill-rule:nonzero}
        </style>
    </defs>
    <g>
        <path class="fil0"
              d="M38308 43069l0 -5090c-39,-176 -72,-350 -97,-526 -40,-282 -57,-567 -39,-868 23,-402 55,-789 93,-1163 -1270,-686 -2527,-1612 -3722,-2728 -2217,2168 -4851,4163 -7687,5938l0 4166 5547 0c138,0 250,112 250,250l0 1429c0,138 -112,250 -250,250l-696 0 5 1035c2217,0 4723,-1574 6595,-2692zm12838 -14481l871 2273c49,129 -16,273 -145,322l-1235 473c-24,9 -48,14 -71,16 -120,1957 -1827,3945 -6219,4980l-19 3c-113,21 -228,39 -344,54 -1587,209 -3275,-131 -4954,-906 -24,268 -45,542 -61,825 -14,245 0,480 33,715 34,241 88,486 152,743 329,1326 872,2465 1627,3420 286,-188 568,-374 846,-558 1745,-1154 3345,-2212 4808,-2845 4298,-1860 7110,-2363 8801,-2071 884,153 1489,519 1858,1028 373,514 492,1154 405,1853 -131,1053 -743,2259 -1652,3345l0 6347 4209 0c221,0 400,179 400,400 0,221 -179,400 -400,400l-60108 0c-221,0 -400,-179 -400,-400 0,-221 179,-400 400,-400l6094 0 0 -1802c-1351,-82 -2317,-435 -2933,-978 -585,-516 -858,-1190 -848,-1961 9,-724 275,-1529 770,-2358 1207,-2025 3823,-4263 7409,-5837 1040,-3382 3483,-7051 5684,-10359 155,-233 309,-464 461,-693 -1483,-241 -2704,-574 -3684,-977 -1179,-486 -2021,-1079 -2557,-1743 -563,-697 -791,-1467 -719,-2272 32,-362 125,-726 275,-1091 767,-1863 2545,-2970 4451,-3466 913,-237 1857,-335 2733,-307 886,28 1706,184 2359,453 798,329 1361,831 1531,1487 435,1673 -1052,4275 -3027,7300 279,32 565,62 861,88 4500,402 6085,1466 5963,2841 -219,2454 -6661,5671 -10713,7696 -1455,727 -2589,1293 -2938,1560 -97,342 -178,680 -241,1013 -507,2682 201,5064 3201,6708 2366,-846 4797,-1875 7181,-3063 1740,-867 3454,-1818 5099,-2844l0 -20935c-17,-112 -32,-224 -47,-337 -249,-1220 176,-2362 1023,-3326 766,-871 1884,-1595 3153,-2090 1256,-490 2665,-755 4028,-715 2024,60 3949,791 5145,2457l23 32 11 22c632,1268 1059,2529 1300,3777 981,5064 -1090,9861 -4818,14091 -343,389 -700,773 -1070,1152 1054,983 2154,1810 3262,2442 847,-6028 3737,-8124 6487,-8135 2,-7 4,-14 6,-22l412 -1257c43,-131 183,-203 314,-160l2313 758c131,43 203,183 160,314l-274 837 652 -759c90,-105 247,-117 352,-27l1847 1586c105,90 117,247 27,352l-571 665 732 -281c129,-49 273,16 322,145zm315 2218l-692 -1807 -769 295 120 312c134,267 240,543 316,826l256 669 769 -295zm-1339 -2883l-1468 -1261 -537 625 1468 1261 537 -625zm-2614 -1771l-1839 -602 -256 783 849 278c271,68 536,156 794,260l197 64 256 -783zm-21151 16645l0 -3857c-1538,941 -3130,1817 -4743,2621 -2166,1079 -4371,2030 -6535,2833 1081,461 2392,847 3967,1145 2059,389 3056,222 5057,222l1851 0 6 -1035 -753 0c-138,0 -250,-112 -250,-250l0 -1429c0,-138 112,-250 250,-250l1150 0zm-2897 3594c-18,44 -44,84 -76,119l-1318 2054 13645 -58 -2882 -2246 -9285 0 -84 131zm-769 275c-630,31 -1229,8 -1805,-46 -700,-66 -1355,-178 -1986,-297 -2015,-381 -3630,-902 -4904,-1538 -2574,903 -5067,1590 -7341,2031l-34 7 -43 0c-13,0 -25,0 -37,0l0 1784 14906 0 1244 -1940zm13943 1940l1675 0 0 -4610c-1496,871 -3074,1662 -4730,2218l3007 2343c19,15 35,32 48,50zm-4480 -5309l-6697 0 0 929 6697 0 0 -929zm-944 1429l-4752 0 -6 1035 4763 0 -5 -1035zm-4353 -25180l0 18140c2621,-1673 5052,-3536 7112,-5549 -214,-215 -426,-435 -636,-662 -2899,-3136 -5317,-7387 -6476,-11929zm28489 29060l0 -5793c-16,17 -32,33 -49,50 -1483,1506 -3412,2402 -5440,2711 -2111,323 -4335,10 -6277,-910 -1161,-550 -2143,-1252 -2947,-2109 -593,385 -1202,770 -1825,1144l0 4906 16537 0zm-16537 -5840c441,-271 875,-546 1302,-822 -534,-687 -968,-1456 -1302,-2310l0 3132zm3259 -1152c-249,165 -501,331 -755,498 716,736 1585,1346 2608,1830 1798,851 3859,1140 5818,841 1865,-285 3635,-1104 4990,-2480 1090,-1107 1841,-2406 1976,-3487 63,-503 -13,-949 -258,-1287 -249,-343 -685,-596 -1345,-710 -1556,-269 -4213,224 -8351,2014 -1389,601 -2965,1643 -4683,2780zm3085 -14371c-2524,-146 -5278,1767 -6033,7727 1624,792 3249,1149 4762,950 94,-12 189,-27 285,-44l0 0c4666,-1100 5965,-3263 5523,-5138 -211,-895 -807,-1733 -1617,-2366 -818,-640 -1850,-1066 -2920,-1128zm-11235 3692c202,219 407,432 614,640 361,-370 710,-745 1044,-1125 3572,-4052 5561,-8624 4633,-13413 -226,-1167 -626,-2351 -1220,-3547 -1036,-1418 -2718,-2043 -4497,-2095 -1255,-37 -2557,209 -3719,662 -1150,448 -2158,1098 -2840,1874 -689,783 -1037,1695 -840,2646l5 30c50,380 110,761 180,1141 919,5006 3487,9775 6640,13187zm-27379 15090c2029,-395 4238,-990 6524,-1763 -2857,-1807 -3510,-4352 -2971,-7208 24,-127 51,-255 79,-383 -3125,1482 -5391,3458 -6457,5246 -423,709 -649,1377 -657,1958 -7,534 179,999 579,1351 552,486 1502,783 2903,799zm4958 -10988c571,-310 1332,-690 2202,-1125 3899,-1947 10097,-5043 10276,-7049 80,-900 -1318,-1628 -5238,-1978 -445,-40 -871,-86 -1280,-139 -219,331 -443,667 -669,1007 -1982,2977 -4162,6252 -5292,9284zm1706 -12133c1004,414 2285,750 3865,984 1975,-3002 3503,-5563 3134,-6985 -102,-392 -494,-716 -1063,-950 -565,-233 -1289,-369 -2081,-394 -802,-25 -1669,64 -2508,282 -1689,439 -3256,1400 -3914,2997 -120,292 -194,579 -219,857 -53,597 120,1174 547,1703 454,562 1190,1073 2238,1505z"/>
    </g>
</svg>