<svg xmlns="http://www.w3.org/2000/svg" xmlns:xlink="http://www.w3.org/1999/xlink" version="1.1" x="0px" y="0px" viewBox="0 0 512 640" enable-background="new 0 0 512 512" xml:space="preserve"><g><rect style="fill:#ffffff" x="144.798" y="475.656" width="228.608" height="12"/><rect style="fill:#ffffff" x="96.085" y="449.413" width="17.713" height="12"/><rect style="fill:#ffffff" x="403.451" y="449.778" width="17.714" height="12"/><g><g><path fill="#FFFFFF" d="M215.349,179.115h-35.611v-35.611h35.611V179.115z M191.737,167.115h11.611v-11.611h-11.611V167.115z"/></g><g><path fill="#FFFFFF" d="M276.402,179.115h-35.61v-35.611h35.61V179.115z M252.792,167.115h11.61v-11.611h-11.61V167.115L252.792,167.115z"/></g><g><path fill="#FFFFFF" d="M334.888,179.115h-35.61v-35.611h35.61V179.115z M311.276,167.115h11.61v-11.611h-11.61V167.115z"/></g><g><path fill="#FFFFFF" d="M216.634,281.471h-35.611v-35.612h35.611V281.471z M193.022,269.471h11.611v-11.611h-11.611V269.471z"/></g><g><path fill="#FFFFFF" d="M276.402,281.471h-35.61v-35.612h35.61V281.471z M252.792,269.471h11.61v-11.611h-11.61V269.471L252.792,269.471z"/></g><g><path fill="#FFFFFF" d="M336.173,281.471h-35.61v-35.612h35.61V281.471z M312.563,269.471h11.61v-11.611h-11.61V269.471z"/></g><g><path fill="#FFFFFF" d="M216.634,332.646h-35.611v-35.611h35.611V332.646z M193.022,320.646h11.611v-11.611h-11.611V320.646z"/></g><g><path fill="#FFFFFF" d="M276.402,332.646h-35.61v-35.611h35.61V332.646z M252.792,320.646h11.61v-11.611h-11.61V320.646L252.792,320.646z"/></g><g><path fill="#FFFFFF" d="M336.173,332.646h-35.61v-35.611h35.61V332.646z M312.563,320.646h11.61v-11.611h-11.61V320.646z"/></g><g><path fill="#FFFFFF" d="M215.349,230.293h-35.611v-35.611h35.611V230.293z M191.737,218.293h11.611v-11.611h-11.611V218.293z"/></g><g><path fill="#FFFFFF" d="M276.402,230.293h-35.61v-35.611h35.61V230.293z M252.792,218.293h11.61v-11.611h-11.61V218.293L252.792,218.293z"/></g><g><path fill="#FFFFFF" d="M334.888,230.293h-35.61v-35.611h35.61V230.293z M311.276,218.293h11.61v-11.611h-11.61V218.293z"/></g></g><g><g><rect style="fill:#ffffff" x="404.671" y="275.471" width="13.755" height="13.754"/></g><g><rect style="fill:#ffffff" x="430.421" y="275.471" width="13.755" height="13.754"/></g><g><rect style="fill:#ffffff" x="378.921" y="275.471" width="13.755" height="13.754"/></g><g><rect style="fill:#ffffff" x="404.671" y="301.087" width="13.755" height="13.754"/></g><g><rect style="fill:#ffffff" x="430.421" y="301.087" width="13.755" height="13.754"/></g><g><rect style="fill:#ffffff" x="378.921" y="301.087" width="13.755" height="13.754"/></g><g><rect style="fill:#ffffff" x="404.671" y="326.704" width="13.755" height="13.754"/></g><g><rect style="fill:#ffffff" x="430.421" y="326.704" width="13.755" height="13.754"/></g><g><rect style="fill:#ffffff" x="378.921" y="326.704" width="13.755" height="13.754"/></g></g><g><g><rect style="fill:#ffffff" x="96.085" y="275.471" width="13.754" height="13.754"/></g><g><rect style="fill:#ffffff" x="121.835" y="275.471" width="13.754" height="13.754"/></g><g><rect style="fill:#ffffff" x="70.335" y="275.471" width="13.754" height="13.754"/></g><g><rect style="fill:#ffffff" x="96.085" y="301.087" width="13.754" height="13.754"/></g><g><rect style="fill:#ffffff" x="121.835" y="301.087" width="13.754" height="13.754"/></g><g><rect style="fill:#ffffff" x="70.335" y="301.087" width="13.754" height="13.754"/></g><g><rect style="fill:#ffffff" x="96.085" y="326.704" width="13.754" height="13.754"/></g><g><rect style="fill:#ffffff" x="121.835" y="326.704" width="13.754" height="13.754"/></g><g><rect style="fill:#ffffff" x="70.335" y="326.704" width="13.754" height="13.754"/></g></g><g><path fill="#FFFFFF" d="M341.798,430.177h-14.772v-29.521h-12v29.521h-7.89v-50.188h19.89v-31.775h-139.4v31.775h19.89v50.188h-7.89v-24.786h-12    v24.786h-9.497v12h29.387v22.146h12v-22.146h12.754h50.113h12.754v22.146h12v-22.146h34.662V430.177L341.798,430.177z     M270.382,430.177h-26.113v-30.108h26.113V430.177z M295.136,430.177h-12.754v-42.108h-50.113v42.108h-12.754v-50.188h75.621    V430.177z M199.625,367.988v-7.775h115.399v7.775H199.625z"/><path fill="#FFFFFF" d="M167.169,421.662c11.034-2.105,19.403-11.82,19.403-23.459c0-6.195-2.349-17.321-5.583-26.456    c-5.015-14.158-11.002-21.041-18.304-21.041c-7.302,0-13.289,6.883-18.304,21.041c-3.235,9.134-5.584,20.261-5.584,26.456    c0,4.568,1.291,8.841,3.525,12.474h-7.611v-60.021H75.428v60.021h-16.81v-149.54h72.761v-12H46.618V410.68H23.954v11.999h51.474    h21.19h38.094v-0.002h20.457v26.979h-26.457v12h51.86v-12h-13.403V421.662z M122.712,410.677h-11.643v-33.521h-12v33.521H87.428    v-48.021h35.284V410.677z M150.798,398.203c0-3.801,1.614-12.604,4.314-20.758c3.251-9.813,6.327-13.639,7.573-14.578    c1.245,0.939,4.321,4.768,7.572,14.58c2.7,8.152,4.314,16.955,4.314,20.756c0,6.555-5.332,11.887-11.887,11.887    C156.129,410.09,150.798,404.758,150.798,398.203z"/><path fill="#FFFFFF" d="M468.038,410.677v-161.54H367.01l-0.306-136.48H147.942l-0.494,220.905l12,0.027l0.467-208.934h194.816l0.467,208.938    l6-0.014h6v-72.443h88.84v149.539h-12.74v-60.021h-59.283v60.021h-8.134c2.233-3.633,3.525-7.904,3.525-12.474    c0-6.195-2.349-17.322-5.583-26.456c-5.016-14.158-11.002-21.041-18.305-21.041c-7.302,0-13.288,6.883-18.304,21.041    c-3.234,9.134-5.583,20.261-5.583,26.456c0,11.101,7.61,20.454,17.887,23.123v28.209h-12.842v12h51.86v-12H361.52v-26.858h22.495    v0.002h59.283v-0.002h24.74h20.008v-12L468.038,410.677L468.038,410.677z M355.52,410.09c-6.555,0-11.887-5.332-11.887-11.887    c0-3.801,1.614-12.604,4.314-20.758c3.251-9.813,6.326-13.639,7.571-14.579c1.246,0.94,4.321,4.768,7.572,14.579    c2.7,8.152,4.314,16.957,4.314,20.758C367.406,404.758,362.074,410.09,355.52,410.09z M407.656,377.156v33.521h-11.643v-48.021    h35.283v48.021h-1.543h-10.099v-33.521H407.656z"/></g><g><path fill="#FFFFFF" d="M281.115,103.032c-1.074,0-2.153-0.259-3.151-0.783l-18.026-9.478l-18.026,9.477c-2.294,1.207-5.022,1.01-7.119-0.515    c-2.097-1.523-3.127-4.057-2.689-6.611l3.443-20.072l-14.584-14.216c-1.854-1.808-2.511-4.462-1.711-6.928    c0.8-2.466,2.89-4.229,5.455-4.604l20.156-2.929l9.013-18.262c1.149-2.325,3.473-3.769,6.063-3.769c0.002,0,0.004,0,0.006,0    c2.591,0.002,4.91,1.445,6.058,3.769l9.013,18.262l20.154,2.929c2.568,0.374,4.658,2.138,5.458,4.604    c0.8,2.466,0.144,5.12-1.713,6.929L284.329,75.05l3.442,20.071c0.438,2.556-0.592,5.089-2.688,6.612    C283.896,102.595,282.511,103.032,281.115,103.032z M257.498,91.489c0.013,0.007,0.023,0.014,0.037,0.02L257.498,91.489z     M262.387,91.483l-0.02,0.011C262.374,91.49,262.38,91.486,262.387,91.483z M259.934,80.089c1.088,0,2.178,0.264,3.17,0.791    l11.047,5.807l-2.114-12.323c-0.374-2.203,0.354-4.438,1.948-5.988l8.949-8.724l-12.373-1.798c-2.201-0.321-4.101-1.7-5.086-3.688    l-5.537-11.222l-5.534,11.212c-0.979,1.99-2.882,3.377-5.088,3.698l-12.376,1.798l8.954,8.728c1.594,1.542,2.325,3.79,1.941,5.998    l-2.111,12.31l11.067-5.818C257.771,80.349,258.854,80.089,259.934,80.089z M237.505,76.96c0.009,0.01,0.019,0.019,0.028,0.028    L237.505,76.96z M282.363,76.965l-0.008,0.008C282.357,76.97,282.361,76.968,282.363,76.965z M236.01,72.334    c-0.001,0.008-0.002,0.016-0.004,0.023L236.01,72.334z M243.646,48.838c-0.003,0.006-0.006,0.011-0.008,0.017L243.646,48.838z"/><path fill="#FFFFFF" d="M324.24,93.811c-1.498,0-2.988-0.47-4.265-1.395c-2.256-1.638-3.364-4.363-2.895-7.111l1.881-10.958l-7.961-7.76    c-1.996-1.946-2.701-4.802-1.84-7.452c0.861-2.651,3.108-4.547,5.869-4.947l11.002-1.599l4.918-9.97    c1.235-2.5,3.733-4.052,6.52-4.052s5.283,1.552,6.519,4.05l0.002,0.002l4.918,9.97l11.004,1.6    c2.756,0.399,5.006,2.295,5.867,4.946c0.86,2.65,0.155,5.506-1.84,7.452l-7.961,7.76l1.881,10.958    c0.471,2.748-0.64,5.472-2.896,7.11c-2.254,1.638-5.188,1.85-7.656,0.551l-9.838-5.172l-9.842,5.173    C326.559,93.531,325.396,93.811,324.24,93.811z M337.471,75.179c1.162,0,2.324,0.279,3.386,0.837l3.555,1.869l-0.68-3.961    c-0.406-2.351,0.372-4.759,2.09-6.433l2.879-2.807l-3.978-0.578c-2.36-0.342-4.405-1.824-5.469-3.965l-1.783-3.614l-1.776,3.604    c-1.068,2.151-3.113,3.634-5.478,3.977l-3.975,0.577l2.877,2.805c1.719,1.676,2.498,4.084,2.09,6.444l-0.678,3.951l3.557-1.87    C335.146,75.457,336.309,75.179,337.471,75.179z M319.383,71.896c0,0.004-0.002,0.009-0.002,0.014L319.383,71.896z     M355.557,71.886l0.002,0.014C355.559,71.895,355.559,71.89,355.557,71.886z M333.23,47.933c0,0.001,0,0.002,0,0.003V47.933z"/><path fill="#FFFFFF" d="M392.541,93.811c-1.498,0-2.988-0.47-4.263-1.395c-2.257-1.638-3.366-4.363-2.896-7.111l1.881-10.957l-7.963-7.762    c-1.996-1.945-2.699-4.801-1.838-7.452c0.861-2.651,3.111-4.546,5.869-4.946l11-1.599l4.92-9.97c1.236-2.5,3.734-4.052,6.52-4.052    c0.003,0,0.003,0,0.003,0c2.786,0.001,5.284,1.555,6.518,4.054l4.918,9.968l11.004,1.6c2.756,0.399,5.004,2.294,5.867,4.945    c0.861,2.651,0.156,5.507-1.84,7.453l-7.961,7.761l1.879,10.957c0.471,2.748-0.637,5.474-2.896,7.111    c-2.256,1.64-5.188,1.847-7.654,0.549l-9.837-5.171l-9.843,5.173C394.859,93.531,393.697,93.811,392.541,93.811z M394.543,64.685    l2.877,2.806c1.711,1.663,2.494,4.068,2.092,6.43l-0.68,3.965l3.557-1.87c2.115-1.112,4.646-1.113,6.764-0.002l3.56,1.871    l-0.68-3.96c-0.402-2.36,0.379-4.764,2.09-6.433L417,64.685l-3.979-0.578c-2.367-0.344-4.412-1.83-5.474-3.976l-1.776-3.604    l-1.779,3.604c-1.06,2.146-3.104,3.632-5.474,3.976L394.543,64.685z M389.041,76.081c0.004,0.002,0.006,0.005,0.008,0.008    L389.041,76.081z M401.528,47.93c0.001,0.001,0.001,0.003,0.003,0.005L401.528,47.93z"/><path fill="#FFFFFF" d="M99.121,93.811c-1.498,0-2.988-0.47-4.264-1.395c-2.256-1.638-3.365-4.363-2.895-7.111l1.881-10.957l-7.963-7.762    c-1.996-1.945-2.699-4.801-1.838-7.452c0.861-2.651,3.111-4.546,5.869-4.946l11-1.599l4.92-9.97c1.236-2.5,3.734-4.052,6.52-4.052    c0.002,0,0.002,0,0.002,0c2.787,0.001,5.285,1.555,6.518,4.054l4.918,9.968l11.004,1.6c2.756,0.399,5.004,2.294,5.867,4.945    c0.861,2.651,0.157,5.507-1.84,7.453l-7.961,7.761l1.879,10.957c0.471,2.748-0.637,5.474-2.895,7.111    c-2.256,1.64-5.189,1.847-7.656,0.549l-9.836-5.172l-9.842,5.174C101.439,93.531,100.278,93.811,99.121,93.811z M101.123,64.685    L104,67.49c1.711,1.663,2.494,4.068,2.092,6.43l-0.68,3.964l3.557-1.869c2.119-1.112,4.646-1.113,6.762-0.002l3.561,1.871    l-0.68-3.96c-0.402-2.36,0.379-4.764,2.09-6.433l2.879-2.807l-3.979-0.578c-2.367-0.344-4.412-1.83-5.473-3.976l-1.777-3.604    l-1.779,3.604c-1.059,2.146-3.104,3.632-5.473,3.976L101.123,64.685z M95.621,76.081c0.004,0.002,0.006,0.005,0.008,0.008    L95.621,76.081z M108.107,47.93c0.002,0.001,0.003,0.003,0.004,0.005L108.107,47.93z"/><path fill="#FFFFFF" d="M167.422,93.811c-1.498,0-2.988-0.47-4.264-1.395c-2.256-1.638-3.365-4.363-2.895-7.111l1.881-10.957l-7.963-7.762    c-1.996-1.945-2.699-4.801-1.838-7.452c0.861-2.651,3.111-4.546,5.869-4.946l11-1.599l4.92-9.97    c1.232-2.497,3.729-4.051,6.516-4.052c0.002,0,0.003,0,0.004,0c2.785,0,5.283,1.552,6.516,4.05l0.002,0.002l4.92,9.97l11.004,1.6    c2.756,0.399,5.004,2.294,5.867,4.945c0.861,2.651,0.156,5.507-1.84,7.453l-7.961,7.761l1.879,10.957    c0.471,2.748-0.637,5.474-2.895,7.111c-2.256,1.64-5.189,1.847-7.656,0.549l-9.836-5.171l-9.842,5.173    C169.74,93.531,168.578,93.811,167.422,93.811z M180.653,75.18c1.161,0,2.325,0.278,3.384,0.836l3.555,1.869l-0.68-3.961    c-0.404-2.365,0.379-4.771,2.096-6.439l2.873-2.8l-3.978-0.578c-2.368-0.344-4.413-1.83-5.474-3.976l-1.777-3.604l-1.779,3.604    c-1.059,2.146-3.104,3.632-5.472,3.976l-3.978,0.578l2.877,2.806c1.713,1.67,2.494,4.073,2.092,6.43l-0.68,3.964l3.557-1.869    C178.33,75.458,179.49,75.18,180.653,75.18z M197.387,76.075l-0.008,0.008C197.381,76.08,197.385,76.078,197.387,76.075z     M176.41,47.933c0,0.001,0.002,0.003,0.002,0.005L176.41,47.933z"/></g></g><text x="0" y="527" fill="#ffffff" font-size="5px" font-weight="bold" font-family="'Helvetica Neue', Helvetica, Arial-Unicode, Arial, Sans-serif"></text><text x="0" y="532" fill="#ffffff" font-size="5px" font-weight="bold" font-family="'Helvetica Neue', Helvetica, Arial-Unicode, Arial, Sans-serif"></text></svg>