



<svg xmlns="http://www.w3.org/2000/svg" data-name="Layer 1" viewBox="0 0 100 125" x="0px" y="0px"><title>03</title><g data-name="Group"><path data-name="Compound Path" fill="#FFFFFF" d="M76.1,29.1H42a1,1,0,0,0-1,1V45.6a1,1,0,0,0,1,1H76.1a1,1,0,0,0,1-1V30.1A1,1,0,0,0,76.1,29.1Zm-1,15.6H43V31.1H75.1Z"/><path data-name="Compound Path" fill="#FFFFFF" d="M33.3,15.5a7,7,0,0,0-7,7v7.9H15.2a7,7,0,0,0-7,7V74.5a10,10,0,0,0,10,10H79.5A12.3,12.3,0,0,0,91.8,72.2V22.5a7,7,0,0,0-7-7Zm-15,67a8,8,0,0,1-8-8V37.4a5,5,0,0,1,5-5H26.3V74.5A8,8,0,0,1,18.2,82.5Zm71.6-60V72.2A10.3,10.3,0,0,1,79.5,82.5H24.2a10,10,0,0,0,4-8V22.5a5,5,0,0,1,5-5H84.8A5,5,0,0,1,89.8,22.5Z"/><path data-name="Path" fill="#FFFFFF" d="M76.1,56.6H42a1,1,0,0,0,0,2H76.1a1,1,0,0,0,0-2Z"/><path data-name="Path" fill="#FFFFFF" d="M76.1,68.6H42a1,1,0,0,0,0,2H76.1a1,1,0,0,0,0-2Z"/></g><text x="0" y="115" fill="#000000" font-size="5px" font-weight="bold" font-family="'Helvetica Neue', Helvetica, Arial-Unicode, Arial, Sans-serif">Created by Focus</text><text x="0" y="120" fill="#000000" font-size="5px" font-weight="bold" font-family="'Helvetica Neue', Helvetica, Arial-Unicode, Arial, Sans-serif">from the Noun Project</text></svg>