<svg xmlns="http://www.w3.org/2000/svg" xmlns:xlink="http://www.w3.org/1999/xlink" version="1.1" x="0px" y="0px" viewBox="0 0 100 125" enable-background="new 0 0 100 100" xml:space="preserve"><path fill-rule="evenodd" clip-rule="evenodd" fill="#FFFFFF" d="M67.354,16.046c1.631,0.585,3.229,0.605,4.797,0.063l8.684,18.435  c-1.42,0.857-2.424,2.101-3.01,3.731v0.031c-0.584,1.609-0.605,3.209-0.063,4.797L39.01,61.382c-0.083,0-0.157,0.021-0.219,0.063  L28.162,66.46c-0.042,0.021-0.083,0.041-0.125,0.063l-5.33,2.507c-0.794-1.296-1.901-2.226-3.324-2.789  c-0.146-0.085-0.292-0.157-0.438-0.22c-1.63-0.586-3.229-0.606-4.797-0.063L9.069,55.172L9.1,55.203l-3.605-7.648  c1.421-0.879,2.404-2.132,2.947-3.764c0.606-1.629,0.637-3.228,0.094-4.796l55.085-25.928  C64.479,14.488,65.723,15.481,67.354,16.046z M64.406,19.149c-0.23-0.084-0.451-0.073-0.658,0.031l-9.781,4.609  c-0.063,0-0.105,0.01-0.127,0.031L22.771,38.463c-0.042,0.021-0.084,0.041-0.126,0.063l-9.782,4.608  c-0.229,0.104-0.387,0.271-0.47,0.502c-0.084,0.209-0.074,0.428,0.031,0.658l8.339,17.715c0.105,0.229,0.272,0.387,0.501,0.47  c0.23,0.083,0.46,0.072,0.69-0.031L72.84,38.463c0.209-0.104,0.355-0.272,0.439-0.502c0.082-0.209,0.072-0.429-0.031-0.658  l-8.342-17.715C64.803,19.358,64.637,19.212,64.406,19.149z M71.303,37.24l-8.213,3.887l-7.588-16.114l8.215-3.888L71.303,37.24z   M22.613,40.5L30.2,56.615l-8.215,3.888l-7.586-16.146L22.613,40.5z M53.621,40.657l-2.822-3.072l1.975-3.637l-3.761,1.756  l-2.854-3.042l0.501,4.139l-3.73,1.787l4.043,0.783l0.565,4.14l2.006-3.638L53.621,40.657z M37.819,43.697l2.006-3.636l-3.793,1.725  l-2.821-2.979l0.47,4.106l-3.73,1.787l4.075,0.784l0.565,4.14l2.006-3.639l4.077,0.754L37.819,43.697z M53.904,25.733L61.49,41.88  L31.768,55.895l-7.556-16.146L53.904,25.733z M40.139,62.761l5.425-2.571h27.433v17.84H40.139V62.761z M46.598,69.596l-1.254,3.95  l3.355-2.414l3.354,2.414l-1.254-3.95l3.354-2.446l-4.137-0.031l-1.317-3.95l-1.285,3.95l-4.138,0.031L46.598,69.596z   M38.415,78.029h-9.092v-10.19l9.092-4.264V78.029z M21.516,70.536c0.104,0.23,0.271,0.387,0.5,0.47  c0.21,0.085,0.43,0.074,0.659-0.031l4.891-2.289v10.222c0,0.229,0.084,0.438,0.25,0.628c0.168,0.146,0.376,0.218,0.627,0.218h56.278  c0.23,0,0.439-0.072,0.627-0.218c0.146-0.189,0.219-0.398,0.219-0.628V59.312c0-0.229-0.072-0.429-0.219-0.597  c-0.188-0.166-0.396-0.249-0.627-0.249h-35.46l13.732-6.49h25.02c0,1.797,0.637,3.323,1.912,4.577  c1.254,1.275,2.781,1.913,4.58,1.913v22.008c-1.799,0-3.326,0.627-4.58,1.882c-1.275,1.254-1.912,2.78-1.912,4.577H25.498  c0-1.797-0.638-3.323-1.913-4.577c-1.254-1.255-2.769-1.882-4.546-1.882V67.965C20.146,68.508,20.972,69.365,21.516,70.536z   M83.846,78.029h-9.094v-17.84h9.094V78.029z M63.027,71.132l3.354,2.414l-1.254-3.95l3.354-2.446l-4.137-0.031l-1.316-3.95  l-1.285,3.95l-4.139,0.031l3.322,2.446l-1.254,3.95L63.027,71.132z"/><text x="0" y="115" fill="#000000" font-size="5px" font-weight="bold" font-family="'Helvetica Neue', Helvetica, Arial-Unicode, Arial, Sans-serif">Created by Amos Meron</text><text x="0" y="120" fill="#000000" font-size="5px" font-weight="bold" font-family="'Helvetica Neue', Helvetica, Arial-Unicode, Arial, Sans-serif">from the Noun Project</text></svg>