<svg xmlns="http://www.w3.org/2000/svg" viewBox="0 0 64 80" x="0px" y="0px">
    <title>ticket-carnival-show</title>
    <g>
        <path d="M53.126,23H48.874A4.016,4.016,0,0,1,46,25.874V38.126A4.016,4.016,0,0,1,48.874,41h4.252A4.016,4.016,0,0,1,56,38.126V25.874A4.016,4.016,0,0,1,53.126,23ZM50,38H48V27h2Zm4,0H52V27h2Z"/>
        <polygon points="15.414 31 16.414 32 15.414 33 28.586 33 27.586 32 28.586 31 15.414 31"/>
        <path d="M32.1,23H11.9A5.013,5.013,0,0,1,8,26.9V37.1A5.013,5.013,0,0,1,11.9,41H32.1A5.013,5.013,0,0,1,36,37.1V26.9A5.013,5.013,0,0,1,32.1,23ZM16,25H28v2H16ZM28,39H16V37H28Zm5.414-4H10.586l3-3-3-3H33.414l-3,3Z"/>
        <path d="M42,19v2H40V19H4V45H40V43h2v2H60V19ZM38,39H37a3,3,0,0,0-3,3v1H10V42a3,3,0,0,0-3-3H6V25H7a3,3,0,0,0,3-3V21H34v1a3,3,0,0,0,3,3h1Zm4,2H40V39h2Zm0-4H40V35h2Zm0-4H40V31h2Zm0-4H40V27h2Zm0-4H40V23h2ZM58,40H57a2,2,0,0,0-2,2v1H47V42a2,2,0,0,0-2-2H44V24h1a2,2,0,0,0,2-2V21h8v1a2,2,0,0,0,2,2h1Z"/>
    </g>
</svg>